PathFileType	4	(X/Y/Z)	TVC_26_BWA1_walk_RCNL2025.trc
DataRate	CameraRate	NumFrames	NumMarkers	Units	OrigDataRate	OrigDataStartFrame	OrigNumFrames
100	100	6	27	mm	100	365	728
Frame#	Time	R_Shoulder			L_Shoulder			C7			J_Notch			R_Elbow			L_Elbow			R_Wrist			L_Wrist			R_Asis			L_Asis			R_Psis			L_Psis			Sacral			Thoracic			Sternum			R_Thigh_Lateral			R_Knee_Lateral			R_Shank_Lateral			R_Ankle_Lateral			R_Heel			R_Toe			L_Thigh_Lateral			L_Knee_Lateral			L_Shank_Lateral			L_Ankle_Lateral			L_Heel			L_Toe		
		X1	Y1	Z1	X2	Y2	Z2	X3	Y3	Z3	X4	Y4	Z4	X5	Y5	Z5	X6	Y6	Z6	X7	Y7	Z7	X8	Y8	Z8	X9	Y9	Z9	X10	Y10	Z10	X11	Y11	Z11	X12	Y12	Z12	X13	Y13	Z13	X14	Y14	Z14	X15	Y15	Z15	X16	Y16	Z16	X17	Y17	Z17	X18	Y18	Z18	X19	Y19	Z19	X20	Y20	Z20	X21	Y21	Z21	X22	Y22	Z22	X23	Y23	Z23	X24	Y24	Z24	X25	Y25	Z25	X26	Y26	Z26	X27	Y27	Z27
365	3.64000000	-585.483643	1357.656494	165.914276	-585.887207	1369.054199	-153.090286	-662.597961	1400.753906	14.249125	-514.998718	1302.121826	15.754118	-579.228577	1018.927490	288.801758	-609.882019	1039.144043	-254.227921	-477.474411	831.440216	320.444794	-511.405090	835.652008	-246.494179	-519.987915	954.758362	178.342392	-494.271454	956.318176	-114.602425	-724.242249	947.446533	85.851158	-706.266663	943.805420	-59.390697	-715.254456	945.625977	13.230230	-723.672241	1121.138062	2.827198	-461.790009	1068.077759	8.679425	-499.726257	575.234131	246.642029	-467.753021	450.845581	202.891922	-595.432129	317.017578	236.438614	-723.104309	165.329803	165.966690	-764.843445	175.399780	111.190765	-630.436035	62.413353	164.214294	-451.619934	591.801697	-149.406189	-460.016205	471.454498	-78.748123	-489.939758	252.159363	-106.045418	-546.072815	68.572540	-28.573837	-594.792236	55.553642	25.117304	-412.040619	40.906872	-15.847891
366	3.65000000	-582.322021	1357.830688	164.667709	-582.417908	1369.139771	-154.355881	-659.198608	1400.926758	12.889953	-511.690704	1302.191284	14.535649	-578.322449	1019.267334	288.102173	-605.998596	1039.252930	-255.740005	-478.535690	830.908234	320.980698	-506.890656	836.035034	-247.739830	-516.533386	954.648254	176.922699	-491.499207	956.188477	-115.994270	-721.074646	947.645081	85.080055	-703.446106	943.962097	-60.278637	-712.260376	945.803589	12.400709	-720.499756	1121.358521	1.507537	-458.708710	1068.061035	7.612737	-493.141693	576.501343	245.899231	-458.270782	452.777771	202.638931	-585.070801	318.350403	236.268097	-711.051270	165.302979	166.147079	-752.820251	174.573273	111.236076	-616.960693	63.932419	164.968369	-448.766815	591.534485	-149.581009	-458.411377	471.091522	-79.035904	-488.960663	251.916794	-106.073105	-545.977905	68.519348	-28.527615	-594.710022	55.581310	25.198305	-412.031830	40.914352	-15.849268
367	3.66000000	-579.179260	1358.012207	163.450424	-578.996582	1369.198608	-155.593201	-655.838806	1401.091064	11.560577	-508.423737	1302.253296	13.348330	-577.383911	1019.620972	287.411346	-602.192749	1039.325073	-257.183350	-479.529007	830.438019	321.467972	-502.460129	836.388824	-248.906761	-513.122192	954.563171	175.572311	-488.756348	956.064575	-117.288513	-717.935181	947.842407	84.357803	-700.659180	944.107788	-61.113338	-709.297180	945.975098	11.622232	-717.365845	1121.570190	0.252537	-455.652466	1068.040405	6.601278	-487.072601	577.718933	245.040802	-449.096649	454.743988	202.224518	-574.594666	319.325958	236.006409	-698.434326	164.565094	166.328644	-740.268982	172.853455	111.293358	-602.574402	65.121956	165.722046	-446.145142	591.238708	-149.820663	-456.904358	470.738129	-79.344101	-488.135468	251.682953	-106.155106	-545.896790	68.463112	-28.483803	-594.633972	55.614407	25.270803	-412.035919	40.924580	-15.871109
368	3.67000000	-576.051086	1358.200439	162.262451	-575.621033	1369.231934	-156.801483	-652.515442	1401.246216	10.262699	-505.194366	1302.307495	12.191873	-576.398621	1019.987549	286.729004	-598.463623	1039.360718	-258.553192	-480.442215	830.023651	321.906830	-498.125748	836.714722	-250.007957	-509.764801	954.515259	174.296768	-486.032959	955.955322	-118.485535	-714.823853	948.038269	83.673744	-697.897400	944.243652	-61.901100	-706.360626	946.140961	10.886322	-714.267456	1121.773193	-0.937664	-452.618317	1068.017334	5.639900	-481.391663	578.880371	244.090500	-440.228546	456.722534	201.654663	-563.987244	319.937378	235.669128	-685.283325	163.160263	166.520813	-727.218994	170.318222	111.382217	-587.382324	65.958176	166.452133	-443.772247	590.919067	-150.144119	-455.502533	470.397369	-79.683067	-487.469727	251.453140	-106.299309	-545.830261	68.402809	-28.445997	-594.571289	55.655880	25.326479	-412.051392	40.935478	-15.911343
369	3.68000000	-572.934021	1358.394531	161.103867	-572.289001	1369.240845	-157.980057	-649.225159	1401.391846	8.997849	-501.999023	1302.353516	11.065877	-575.353333	1020.365662	286.054993	-594.810303	1039.360962	-259.845520	-481.263779	829.659424	322.298157	-493.893906	837.008423	-251.050323	-506.469543	954.512939	173.100739	-483.320129	955.866821	-119.588440	-711.740540	948.232117	83.017693	-695.153076	944.370728	-62.648285	-703.446808	946.301422	10.184704	-711.201538	1121.967285	-2.063743	-449.603699	1067.992798	4.723163	-475.976257	579.983887	243.067917	-431.662933	458.692688	200.936630	-553.240906	320.193512	235.271805	-671.633423	161.148010	166.732346	-713.704895	167.060089	111.519936	-571.494019	66.438484	167.138184	-441.655731	590.582092	-150.561142	-454.206818	470.070953	-80.058830	-486.960968	251.225067	-106.508469	-545.777832	68.338257	-28.416897	-594.527283	55.708126	25.359426	-412.075958	40.944901	-15.966883
370	3.69000000	-569.825012	1358.593384	159.974655	-568.997803	1369.227051	-159.128387	-645.964844	1401.527588	7.767377	-498.834320	1302.391235	9.969851	-574.236145	1020.753540	285.389343	-591.231750	1039.327026	-261.057434	-481.982788	829.339691	322.643356	-489.765045	837.267365	-252.035706	-503.242401	954.560425	171.987854	-480.610016	955.801819	-120.602806	-708.685059	948.423340	82.380356	-692.419250	944.490051	-63.361061	-700.552155	946.456696	9.509647	-708.164978	1122.152344	-3.127087	-446.606384	1067.967407	3.845530	-470.723846	581.030518	241.988159	-423.395660	460.635071	200.078629	-542.357910	320.117584	234.829132	-657.524963	158.600189	166.970627	-699.765869	163.181839	111.720398	-555.019714	66.580048	167.762772	-439.792328	590.235107	-151.071808	-453.012115	469.759399	-80.473015	-486.598267	250.998657	-106.780197	-545.738098	68.270256	-28.398300	-594.505188	55.772747	25.366669	-412.106689	40.950565	-16.033905
